<svg class="diagram-root" style="background: #f5f6f6" xmlns="http://www.w3.org/2000/svg" xmlns:xlink="http://www.w3.org/1999/xlink"><style>.diagram-root { font-family: "Helvetica Neue", sans-serif; font-size: 12px; } .t { overflow: visible; } .t-bg { y: 40; fill: #fff;   } .th { fill: #005aa0;   } .tht { fill: #fff; font-size: 14px;  } .tf { fill: #323c46; overflow: visible; } .tf.pk { fill: #005aa0; font-weight: bold; } .tf.fk { font-weight: bold; } .ty { fill: #adb1b5; font-weight: normal; text-anchor: end; } .r { fill: transparent; stroke: #c3c3c3; stroke-width: 1; } .l { stroke: 1; } .i { fill: #c2c7ce; stroke: #c2c7ce; } .i.ix { fill: #afb3b6; stroke: #000; } .fa { fill: transparent; overflow: visible; } .fa .bg.hover { fill: #f7f7f7; } .c { cy: 12; r: 4; stroke: #d2d2dc; fill: #d2d2dc; } .hr { fill: transparent; stroke: #323c46; stroke-opacity: 0.035; stroke-width: 13; } .dc { stroke: #fa5a3c; fill: #fa5a3c; } .x { stroke: white; stroke-width: 1; } .hl .th { fill: #1b9bff; } .hl .tht {  } .fhl .bg { fill: #e7f4ff; } .fhls .bg {  } .r.hl { stroke: #1b9bff; } .dim { opacity: 0.25; }</style><g class="drawing-wrapper" transform="translate(195.3366666666666, 12.503333333333348) scale(1,1)"><g class="rs"><path d="M 55.83 174.5 m -1, 0 a 1,1 0 1,0 2,0 a 1,1 0 1,0 -2,0 M 55.83 174.5 m -0.5, 0 a 0.5,0.5 0 1,0 1,0 a 0.5,0.5 0 1,0 -1,0  M55.83 174.5 L55.83 174.5 43.83 174.5 M 55.83 180.5 m -1, 0 a 1,1 0 1,0 2,0 a 1,1 0 1,0 -2,0 M 55.83 180.5 m -0.5, 0 a 0.5,0.5 0 1,0 1,0 a 0.5,0.5 0 1,0 -1,0  M55.83 180.5 L55.83 180.5 48.83 174.5 55.83 168.5 M 55.83 168.5 m -1, 0 a 1,1 0 1,0 2,0 a 1,1 0 1,0 -2,0 M 55.83 168.5 m -0.5, 0 a 0.5,0.5 0 1,0 1,0 a 0.5,0.5 0 1,0 -1,0  M43.83 174.5 Q 28.05 174.5, 12.26 140.75 T -19.32 107 M -31.32 107 m -1, 0 a 1,1 0 1,0 2,0 a 1,1 0 1,0 -2,0 M -31.32 107 m -0.5, 0 a 0.5,0.5 0 1,0 1,0 a 0.5,0.5 0 1,0 -1,0  M-31.32 107 L-31.32 107 -19.32 107 M-25.32 113 L-25.32 113 -25.32 101" id="h3439337201" class="r"></path><path d="M 294.16 174.5 m -1, 0 a 1,1 0 1,0 2,0 a 1,1 0 1,0 -2,0 M 294.16 174.5 m -0.5, 0 a 0.5,0.5 0 1,0 1,0 a 0.5,0.5 0 1,0 -1,0  M294.16 174.5 L294.16 174.5 282.16 174.5 M 294.16 180.5 m -1, 0 a 1,1 0 1,0 2,0 a 1,1 0 1,0 -2,0 M 294.16 180.5 m -0.5, 0 a 0.5,0.5 0 1,0 1,0 a 0.5,0.5 0 1,0 -1,0  M294.16 180.5 L294.16 180.5 287.16 174.5 294.16 168.5 M 294.16 168.5 m -1, 0 a 1,1 0 1,0 2,0 a 1,1 0 1,0 -2,0 M 294.16 168.5 m -0.5, 0 a 0.5,0.5 0 1,0 1,0 a 0.5,0.5 0 1,0 -1,0  M282.16 174.5 Q 264.09 174.5, 246.01 137 T 209.85 99.5 M 197.85 99.5 m -1, 0 a 1,1 0 1,0 2,0 a 1,1 0 1,0 -2,0 M 197.85 99.5 m -0.5, 0 a 0.5,0.5 0 1,0 1,0 a 0.5,0.5 0 1,0 -1,0  M197.85 99.5 L197.85 99.5 209.85 99.5 M203.85 105.5 L203.85 105.5 203.85 93.5" id="h2732405046" class="r"></path></g><g class="hrs"></g><g class="ts"><svg width="142.02" height="125" x="-173.34" y="50" id="h2543840201" class="t"><rect height="40" width="142.02" class="th"></rect><text x="13" y="25" class="tht">Menu</text><rect height="85" width="142.02" class="t-bg" y="40"></rect><text x="13" y="61" class="tf pk">ID<tspan x="129.02" class="ty">int</tspan></text><path d="M7,14A2,2 0 0,1 5,12A2,2 0 0,1 7,10A2,2 0 0,1 9,12A2,2 0 0,1 7,14M12.65,10C11.83,7.67 9.61,6 7, 6A6, 6 0 0, 0 1, 12A6, 6 0 0, 0 7, 18C9.61, 18 11.83, 16.33 12.65, 14H17V18H21V14H23V10H12.65Z" class="i pk" transform="translate(94.19391300201417, 48) scale(0.65)"></path><text x="13" y="86" class="tf">title<tspan x="129.02" class="ty">string</tspan></text><text x="13" y="111" class="tf">description<tspan x="129.02" class="ty">string</tspan></text></svg><svg width="142.02" height="150" x="55.83" y="42.5" id="h4127163401" class="t"><rect height="40" width="142.02" class="th"></rect><text x="13" y="25" class="tht">Submenu</text><rect height="110" width="142.02" class="t-bg" y="40"></rect><text x="13" y="61" class="tf pk">ID<tspan x="129.02" class="ty">int</tspan></text><path d="M7,14A2,2 0 0,1 5,12A2,2 0 0,1 7,10A2,2 0 0,1 9,12A2,2 0 0,1 7,14M12.65,10C11.83,7.67 9.61,6 7, 6A6, 6 0 0, 0 1, 12A6, 6 0 0, 0 7, 18C9.61, 18 11.83, 16.33 12.65, 14H17V18H21V14H23V10H12.65Z" class="i pk" transform="translate(94.19391300201417, 48) scale(0.65)"></path><text x="13" y="86" class="tf">title<tspan x="129.02" class="ty">string</tspan></text><text x="13" y="111" class="tf">description<tspan x="129.02" class="ty">string</tspan></text><text x="13" y="136" class="tf fk">menu_id<tspan x="129.02" class="ty">int</tspan></text></svg><svg width="168.2" height="175" x="294.16" y="17.5" id="h3142815653" class="t"><rect height="40" width="168.2" class="th"></rect><text x="13" y="25" class="tht">Dish</text><rect height="135" width="168.2" class="t-bg" y="40"></rect><text x="13" y="61" class="tf pk">ID<tspan x="155.2" class="ty">int</tspan></text><path d="M7,14A2,2 0 0,1 5,12A2,2 0 0,1 7,10A2,2 0 0,1 9,12A2,2 0 0,1 7,14M12.65,10C11.83,7.67 9.61,6 7, 6A6, 6 0 0, 0 1, 12A6, 6 0 0, 0 7, 18C9.61, 18 11.83, 16.33 12.65, 14H17V18H21V14H23V10H12.65Z" class="i pk" transform="translate(120.37391300201415, 48) scale(0.65)"></path><text x="13" y="86" class="tf">title<tspan x="155.2" class="ty">string</tspan></text><text x="13" y="111" class="tf">description<tspan x="155.2" class="ty">string</tspan></text><text x="13" y="136" class="tf">price<tspan x="155.2" class="ty">float_precision_2</tspan></text><text x="13" y="161" class="tf fk">submenu_id<tspan x="155.2" class="ty">int</tspan></text></svg></g></g><text class="qdbd-link" x="10" y="20">www.quickdatabasediagrams.com</text></svg>